<svg xmlns="http://www.w3.org/2000/svg" xmlns:xlink="http://www.w3.org/1999/xlink" width="500" zoomAndPan="magnify" viewBox="0 0 375 374.999991" height="500" preserveAspectRatio="xMidYMid meet" version="1.0"><defs><g/><clipPath id="9b528af748"><path d="M 187.5 0 C 83.945312 0 0 83.945312 0 187.5 C 0 291.054688 83.945312 375 187.5 375 C 291.054688 375 375 291.054688 375 187.5 C 375 83.945312 291.054688 0 187.5 0 Z M 187.5 0 " clip-rule="nonzero"/></clipPath></defs><g clip-path="url(#9b528af748)"><rect x="-37.5" width="450" fill="#ffffff" y="-37.499999" height="449.999989" fill-opacity="1"/></g><g fill="#000000" fill-opacity="1"><g transform="translate(62.80399, 249.02299)"><g><path d="M 96.5625 0 L 96.5625 -124.21875 L 117.265625 -124.21875 L 117.265625 0 Z M 14.875 0 L 14.875 -124.21875 L 35.390625 -124.21875 L 35.390625 0 Z M 26.15625 -54.578125 L 26.15625 -71.90625 L 105.03125 -71.90625 L 105.03125 -54.578125 Z M 26.15625 -54.578125 "/></g></g></g><g fill="#000000" fill-opacity="1"><g transform="translate(194.741511, 249.02299)"><g><path d="M 27.296875 -37.265625 L 27.296875 -54.203125 L 54.953125 -54.203125 C 57.460938 -54.203125 60.253906 -54.265625 63.328125 -54.390625 C 66.410156 -54.515625 69.488281 -55.015625 72.5625 -55.890625 C 75.632812 -56.773438 78.488281 -58.15625 81.125 -60.03125 C 83.757812 -61.914062 85.859375 -64.582031 87.421875 -68.03125 C 88.992188 -71.488281 89.78125 -75.914062 89.78125 -81.3125 C 89.78125 -86.582031 88.960938 -90.847656 87.328125 -94.109375 C 85.703125 -97.367188 83.632812 -99.941406 81.125 -101.828125 C 78.613281 -103.710938 75.882812 -105.0625 72.9375 -105.875 C 69.988281 -106.6875 67.257812 -107.1875 64.75 -107.375 C 62.238281 -107.5625 60.164062 -107.65625 58.53125 -107.65625 L 27.296875 -107.65625 L 27.296875 -124.21875 L 60.046875 -124.21875 C 67.441406 -124.21875 74.242188 -123.335938 80.453125 -121.578125 C 86.671875 -119.828125 92.035156 -117.160156 96.546875 -113.578125 C 101.066406 -110.003906 104.550781 -105.488281 107 -100.03125 C 109.445312 -94.570312 110.671875 -88.144531 110.671875 -80.75 C 110.671875 -71.332031 108.566406 -63.394531 104.359375 -56.9375 C 100.160156 -50.476562 93.828125 -45.582031 85.359375 -42.25 C 76.890625 -38.925781 66.316406 -37.265625 53.640625 -37.265625 Z M 14.875 0 L 14.875 -124.21875 L 35.390625 -124.21875 L 35.390625 0 Z M 14.875 0 "/></g></g></g></svg>